HIERARCHY
ROOT ROOT
{
	OFFSET 0.000000 56.020000 -5.659234
	CHANNELS 6 Xposition Yposition Zposition Xrotation Yrotation Zrotation 
	JOINT C_spine0001_bind_JNT
	{
		OFFSET 0.000000 1.618999 0.000000
		CHANNELS 3 Xrotation Yrotation Zrotation
		JOINT C_spine0002_bind_JNT
		{
			OFFSET 0.000000 4.942001 0.000001
			CHANNELS 3 Xrotation Yrotation Zrotation
			JOINT C_spine0003_bind_JNT
			{
				OFFSET 0.000000 4.942001 -0.000000
				CHANNELS 3 Xrotation Yrotation Zrotation
				JOINT C_neck0001_bind_JNT
				{
					OFFSET 0.000000 17.026009 -0.000000
					CHANNELS 3 Xrotation Yrotation Zrotation
					JOINT C_neck0002_bind_JNT
					{
						OFFSET 0.000000 3.249985 0.000000
						CHANNELS 3 Xrotation Yrotation Zrotation
						JOINT C_head_bind_JNT
						{
							OFFSET 0.000000 5.278008 0.000000
							CHANNELS 3 Xrotation Yrotation Zrotation
							End Site
							{
								OFFSET 0.000000 0.000000 0.000000
							}
						}
					}
				}
				JOINT L_clavicle_bind_JNT
				{
					OFFSET 4.590000 12.067001 0.834000
					CHANNELS 3 Xrotation Yrotation Zrotation
					JOINT L_armUpper0001_bind_JNT
					{
						OFFSET 7.812635 0.512001 -3.452945
						CHANNELS 3 Xrotation Yrotation Zrotation
						JOINT L_armLower0001_bind_JNT
						{
							OFFSET 15.265892 -6.552116 -0.058157
							CHANNELS 3 Xrotation Yrotation Zrotation
							JOINT L_hand0001_bind_JNT
							{
								OFFSET 14.747667 -6.369995 5.049225
								CHANNELS 3 Xrotation Yrotation Zrotation
								End Site
								{
									OFFSET 0.000000 0.000000 0.000000
								}
							}
						}
					}
				}
				JOINT R_clavicle_bind_JNT
				{
					OFFSET -4.590000 12.067001 0.834000
					CHANNELS 3 Xrotation Yrotation Zrotation
					JOINT R_armUpper0001_bind_JNT
					{
						OFFSET -7.812635 0.512001 -3.452945
						CHANNELS 3 Xrotation Yrotation Zrotation
						JOINT R_armLower0001_bind_JNT
						{
							OFFSET -15.265890 -6.552124 -0.058160
							CHANNELS 3 Xrotation Yrotation Zrotation
							JOINT R_hand0001_bind_JNT
							{
								OFFSET -14.746784 -6.369629 5.048937
								CHANNELS 3 Xrotation Yrotation Zrotation
								End Site
								{
									OFFSET 0.000000 0.000000 0.000000
								}
							}
						}
					}
				}
			}
		}
	}
	JOINT C_pelvis0001_bind_JNT
	{
		OFFSET -0.000000 0.000000 0.000000
		CHANNELS 3 Xrotation Yrotation Zrotation
		JOINT L_legUpper0001_bind_JNT
		{
			OFFSET 6.599999 -6.027000 0.539000
			CHANNELS 3 Xrotation Yrotation Zrotation
			JOINT L_legLower0001_bind_JNT
			{
				OFFSET -0.140713 -19.187443 0.040261
				CHANNELS 3 Xrotation Yrotation Zrotation
				JOINT L_foot0001_bind_JNT
				{
					OFFSET -0.132215 -18.028637 -1.138370
					CHANNELS 3 Xrotation Yrotation Zrotation
					JOINT L_foot0002_bind_JNT
					{
						OFFSET 0.007014 -4.693133 9.886524
						CHANNELS 3 Xrotation Yrotation Zrotation
						End Site
						{
							OFFSET 0.000000 0.000000 0.000000
						}
					}
				}
			}
		}
		JOINT R_legUpper0001_bind_JNT
		{
			OFFSET -6.599999 -6.027000 0.539000
			CHANNELS 3 Xrotation Yrotation Zrotation
			JOINT R_legLower0001_bind_JNT
			{
				OFFSET 0.140710 -19.187164 0.040550
				CHANNELS 3 Xrotation Yrotation Zrotation
				JOINT R_foot0001_bind_JNT
				{
					OFFSET 0.132215 -18.028633 -1.138362
					CHANNELS 3 Xrotation Yrotation Zrotation
					JOINT R_foot0002_bind_JNT
					{
						OFFSET -0.007014 -4.693128 9.886505
						CHANNELS 3 Xrotation Yrotation Zrotation
						End Site
						{
							OFFSET 0.000000 0.000000 0.000000
						}
					}
				}
			}
		}
	}
}
MOTION
Frames: 11
Frame Time: 0.033333
0.000000 49.135269 0.000000 0.020940 -4.383057 -0.006087 -1.155586 3.760948 0.494903 1.609849 0.920201 -0.009008 0.900850 1.226624 0.260802 7.149038 -0.278279 -1.326193 -4.826022 -0.170257 0.128081 -28.162024 -2.879992 4.332192 -1.458223 14.096897 -5.917241 0.242881 3.181594 -61.300377 22.256344 0.747072 0.629256 -5.428101 -27.299641 -24.148994 -1.496235 -16.385704 3.854376 -0.277435 -1.420841 62.887455 11.482896 -11.546898 -0.949678 -6.732285 30.016867 11.059076 -0.648154 3.270132 -0.108697 6.649529 0.963370 -2.245141 -0.318868 6.065607 -0.272917 -3.260885 3.315905 0.683732 -2.072998 -0.026645 -0.278932 10.213780 0.067323 2.768885 -2.339122 -4.805361 -1.424355 -4.601160 1.481830 0.825893 -2.028140 0.864338 -0.214181 
0.029459 49.185558 0.116424 -0.001902 -4.276661 -0.018488 -1.133118 3.705380 0.240197 2.128418 0.924404 0.309911 1.192367 1.207126 0.055802 7.604017 -0.273784 -1.535198 -5.088241 -0.297797 0.743014 -30.059763 -2.777090 4.692528 -2.430294 14.116338 -5.946828 -0.135600 2.826230 -60.248154 23.063869 0.658215 -0.052149 -6.194819 -26.041546 -25.537806 -1.900952 -16.599415 4.520085 -0.058912 -1.500322 62.062634 11.631557 -12.039049 -0.006625 -8.447731 30.535681 10.923686 -0.604930 3.419219 0.152874 6.791283 0.869825 -2.905190 -0.404545 6.374770 -0.212862 -3.806556 2.719091 0.871474 -1.746894 -0.196785 -0.129173 10.485654 -0.870854 2.330018 -2.240045 -5.111357 -0.908976 -4.623232 2.854240 0.774207 -2.599829 0.434173 0.043560 
0.010935 49.246357 0.198116 0.006004 -3.952407 -0.004404 -1.015558 3.481250 0.089573 1.978590 0.720828 0.178937 1.214533 0.958842 0.001898 8.037720 -0.072726 -1.689725 -5.488989 0.031209 0.762100 -31.308947 -2.816330 4.497234 -2.859294 13.630300 -5.842896 -0.762712 2.857564 -60.060150 23.536522 0.550011 -0.061167 -5.803454 -26.354040 -25.195864 -2.087084 -16.685465 4.802253 0.242372 -2.005660 61.737980 11.771016 -12.190230 -0.115967 -8.335694 30.757519 11.354460 -0.452649 3.333084 0.144446 6.898022 0.846925 -3.166573 -0.435262 6.325501 0.178324 -3.629071 2.689561 0.946326 -1.914633 -0.261561 -0.232039 10.224587 -1.002205 2.440626 -2.322299 -4.560549 -0.970830 -4.280444 3.433106 0.344026 -2.718949 0.605163 0.101017 
-0.022533 49.226376 0.242675 0.008501 -4.205930 -0.011903 -1.068896 3.821691 0.036349 2.231166 0.534269 0.226996 1.014655 0.773652 0.114924 8.220064 -0.118868 -1.807032 -5.609556 0.350157 0.691684 -31.766611 -2.931889 4.582993 -2.882992 13.372886 -5.920408 -1.130562 2.745171 -59.650879 23.665079 0.278099 -0.433291 -5.826211 -26.475433 -25.375351 -2.236962 -16.769033 4.803406 0.638677 -2.300239 61.411251 12.222728 -12.287120 0.083356 -8.689807 30.766941 11.917197 -0.463618 3.720885 0.051534 7.134042 0.897820 -3.002944 -0.752906 6.228004 0.238344 -3.443402 2.604448 0.797615 -2.089679 -0.131069 -0.094844 10.347608 -0.864040 2.597991 -2.611080 -4.462681 -1.043231 -4.245785 3.544141 0.305446 -2.483521 0.547767 0.039738 
-0.051268 49.236427 0.268920 0.002688 -4.620212 0.001796 -1.122887 4.179870 -0.006304 2.191020 0.412805 0.239640 0.979233 0.659964 0.071949 8.349899 -0.070992 -1.774711 -5.625154 0.561423 0.769750 -32.491058 -2.849702 4.686059 -3.181069 13.336408 -5.781023 -1.023276 3.038165 -59.637856 23.998720 0.205628 -0.364449 -5.757234 -26.617413 -25.504486 -2.515252 -16.535728 4.670231 1.327238 -2.673740 61.320869 12.259309 -12.353043 0.141751 -8.927301 30.854603 12.286759 -0.441970 4.019423 0.013328 7.340388 1.028237 -2.939918 -0.975721 6.164263 0.202130 -3.259426 2.694788 0.723921 -2.162185 -0.152047 -0.224171 10.205506 -0.673497 2.573464 -2.488819 -4.292897 -0.959512 -4.171659 3.465930 0.259629 -2.468255 0.606763 0.124413 
-0.079617 49.205906 0.289518 0.006812 -4.786706 -0.003638 -1.191108 4.410294 0.002131 2.260819 0.251501 0.212713 0.962034 0.641655 0.063741 8.473466 -0.013500 -1.577336 -5.789042 0.482521 0.628126 -32.721394 -3.006078 4.762972 -3.283266 13.023596 -5.690427 -0.944094 3.419286 -59.261349 24.072868 -0.103479 -0.669835 -6.002089 -26.834566 -25.740900 -2.604046 -16.350008 4.693786 1.457645 -3.048937 61.193260 12.488527 -12.272243 0.061214 -9.416318 30.617125 12.910636 -0.452449 4.182591 0.050781 7.615700 0.897082 -2.957198 -1.331640 6.141182 0.100906 -3.016809 2.588304 0.808017 -2.165033 -0.084990 -0.093856 10.135484 -0.666642 2.595803 -2.234028 -4.263988 -0.917070 -4.360266 3.537874 0.301231 -2.420126 0.710478 0.045091 
-0.118595 49.192108 0.198291 0.008491 -4.927075 -0.004774 -1.354264 4.508742 0.121041 2.386283 0.248313 0.138772 1.094656 0.607453 -0.025640 8.433837 -0.046228 -1.427461 -5.810469 0.417900 0.635952 -32.967861 -3.056682 4.809273 -3.432152 12.984551 -5.666069 -1.019483 3.638028 -59.203476 24.101120 -0.180270 -0.480832 -6.024505 -27.041910 -25.871412 -2.905983 -16.201832 4.647235 1.586542 -3.035635 61.147339 12.407326 -12.610669 0.183835 -9.682197 30.579988 12.999544 -0.567506 4.320666 0.110949 7.741669 0.851801 -3.037089 -1.485404 6.304178 0.227027 -2.991807 2.378703 0.714424 -2.060117 -0.013483 -0.110991 9.897655 -0.604956 2.536776 -1.948658 -4.050320 -0.844862 -4.290497 3.459900 0.270259 -2.480395 0.594414 -0.015131 
-0.169039 49.201660 0.225699 0.001689 -5.017712 -0.004471 -1.298080 4.688664 0.165524 2.414507 0.253021 0.070299 1.014569 0.596858 0.005839 8.430370 -0.109909 -1.400219 -5.782205 0.484517 0.665205 -33.130726 -3.151542 4.828859 -3.524740 12.855855 -5.671112 -0.958517 3.757374 -59.012306 23.992100 -0.169304 -0.584674 -5.988921 -27.223597 -25.967161 -2.934164 -16.184679 4.665383 1.663353 -3.151353 60.851013 12.441349 -12.654606 0.179739 -9.858333 30.533716 13.293942 -0.609032 4.452000 0.124213 7.887765 0.797392 -3.044045 -1.601572 6.293258 0.237347 -2.897954 2.298901 0.754822 -2.130004 0.105231 -0.121630 9.963423 -0.547438 2.573694 -1.775773 -4.045410 -0.741632 -4.515898 3.481302 0.106354 -2.504464 0.625959 0.019564 
-0.284704 49.181797 0.219778 0.003760 -5.294580 0.000243 -1.236418 5.030594 0.331943 2.389202 0.237000 -0.035436 1.021627 0.599604 -0.102809 8.340511 -0.164788 -1.301522 -5.747389 0.530763 0.589576 -33.237976 -3.199893 4.676660 -3.568066 12.819939 -5.585333 -1.039945 3.927570 -59.016479 23.825567 -0.324977 -0.605058 -5.955517 -27.376431 -25.973736 -3.126942 -15.996610 4.637212 1.814792 -3.309736 60.633293 12.325355 -12.753368 0.361539 -10.041400 30.502363 13.379438 -0.564960 4.824155 0.166925 7.702260 0.784026 -2.880156 -1.409772 6.249320 0.314103 -2.971390 2.290104 0.569973 -2.095982 -0.006480 -0.236209 9.965097 -0.616640 2.756962 -1.891923 -3.988911 -0.814759 -4.442472 3.427737 -0.061565 -2.536928 0.623445 -0.007618 
-0.405333 49.174152 0.216349 0.009261 -5.373017 -0.007424 -1.220644 5.184741 0.382910 2.334773 0.321216 -0.111102 1.012719 0.644959 -0.072142 8.384522 -0.196781 -1.282416 -5.782952 0.530013 0.608629 -33.230732 -3.213878 4.612257 -3.589309 12.816908 -5.565660 -0.883044 3.951481 -58.914368 23.749327 -0.401030 -0.690356 -6.117148 -27.419170 -25.991238 -3.276346 -15.950663 4.639792 1.868798 -3.310384 60.501320 12.381246 -12.815782 0.377352 -10.134761 30.370014 13.394878 -0.571777 5.000889 0.191795 7.545067 0.856140 -2.824958 -1.180025 6.067972 0.312417 -3.018628 2.456779 0.540948 -2.223019 -0.056973 -0.163787 9.954590 -0.641846 2.894516 -1.683325 -4.111769 -0.782082 -4.608737 3.393127 -0.236266 -2.504512 0.716677 -0.011929 
-0.531305 49.150200 0.229046 0.002474 -5.294589 -0.002710 -1.238086 5.165565 0.421840 2.348835 0.326620 -0.141072 0.995438 0.720118 -0.143493 8.494875 -0.226259 -1.220342 -5.812215 0.524043 0.526073 -33.550636 -3.241987 4.619662 -3.613347 12.924422 -5.536655 -0.803353 4.145697 -58.900528 23.661543 -0.514612 -0.573471 -6.018935 -27.533422 -25.988285 -3.312634 -15.699218 4.637603 1.866561 -3.222561 60.439240 12.274443 -12.881791 0.429260 -10.296179 30.261391 13.372132 -0.616796 5.061495 0.217985 7.165682 0.896103 -2.686968 -0.464828 5.884425 0.213924 -3.205832 2.570551 0.467821 -2.307015 -0.033359 -0.224614 10.045375 -0.750225 3.154471 -1.670559 -4.061865 -0.893514 -4.518602 3.235790 -0.360154 -2.684805 0.697778 -0.025389 
